<svg width="49" height="49" viewBox="0 0 49 49" fill="none" xmlns="http://www.w3.org/2000/svg">
<g filter="url(#filter0_i_149_135)">
<path d="M47.1176 13.8761L35.2238 1.98221C34.5293 1.29187 33.5907 0.903013 32.6115 0.899902H15.7884C14.8092 0.903013 13.8706 1.29187 13.1761 1.98221L1.28226 13.8761C0.59192 14.5706 0.203062 15.5091 0.199951 16.4884V33.3114C0.203062 34.2907 0.59192 35.2292 1.28226 35.9237L13.1761 47.8176C13.8706 48.5079 14.8092 48.8968 15.7884 48.8999H32.6115C33.5907 48.8968 34.5293 48.5079 35.2238 47.8176L47.1176 35.9237C47.808 35.2292 48.1968 34.2907 48.2 33.3114V16.4884C48.1968 15.5091 47.808 14.5706 47.1176 13.8761ZM22.3538 13.823C22.3538 13.3333 22.5483 12.8638 22.8945 12.5176C23.2407 12.1713 23.7103 11.9768 24.2 11.9768C24.6896 11.9768 25.1592 12.1713 25.5054 12.5176C25.8516 12.8638 26.0461 13.3333 26.0461 13.823V26.7461C26.0461 27.2357 25.8516 27.7053 25.5054 28.0515C25.1592 28.3977 24.6896 28.5922 24.2 28.5922C23.7103 28.5922 23.2407 28.3977 22.8945 28.0515C22.5483 27.7053 22.3538 27.2357 22.3538 26.7461V13.823ZM24.2 37.823C23.6522 37.823 23.1168 37.6606 22.6614 37.3563C22.2061 37.052 21.8511 36.6195 21.6415 36.1135C21.4319 35.6075 21.3771 35.0507 21.4839 34.5135C21.5908 33.9763 21.8545 33.4829 22.2418 33.0956C22.6291 32.7083 23.1225 32.4446 23.6597 32.3377C24.1969 32.2309 24.7537 32.2857 25.2597 32.4953C25.7657 32.7049 26.1982 33.0598 26.5025 33.5152C26.8068 33.9706 26.9692 34.506 26.9692 35.0537C26.9692 35.7882 26.6774 36.4926 26.1581 37.0119C25.6388 37.5312 24.9344 37.823 24.2 37.823Z" fill="black"/>
<path d="M47.1176 13.8761L35.2238 1.98221C34.5293 1.29187 33.5907 0.903013 32.6115 0.899902H15.7884C14.8092 0.903013 13.8706 1.29187 13.1761 1.98221L1.28226 13.8761C0.59192 14.5706 0.203062 15.5091 0.199951 16.4884V33.3114C0.203062 34.2907 0.59192 35.2292 1.28226 35.9237L13.1761 47.8176C13.8706 48.5079 14.8092 48.8968 15.7884 48.8999H32.6115C33.5907 48.8968 34.5293 48.5079 35.2238 47.8176L47.1176 35.9237C47.808 35.2292 48.1968 34.2907 48.2 33.3114V16.4884C48.1968 15.5091 47.808 14.5706 47.1176 13.8761ZM22.3538 13.823C22.3538 13.3333 22.5483 12.8638 22.8945 12.5176C23.2407 12.1713 23.7103 11.9768 24.2 11.9768C24.6896 11.9768 25.1592 12.1713 25.5054 12.5176C25.8516 12.8638 26.0461 13.3333 26.0461 13.823V26.7461C26.0461 27.2357 25.8516 27.7053 25.5054 28.0515C25.1592 28.3977 24.6896 28.5922 24.2 28.5922C23.7103 28.5922 23.2407 28.3977 22.8945 28.0515C22.5483 27.7053 22.3538 27.2357 22.3538 26.7461V13.823ZM24.2 37.823C23.6522 37.823 23.1168 37.6606 22.6614 37.3563C22.2061 37.052 21.8511 36.6195 21.6415 36.1135C21.4319 35.6075 21.3771 35.0507 21.4839 34.5135C21.5908 33.9763 21.8545 33.4829 22.2418 33.0956C22.6291 32.7083 23.1225 32.4446 23.6597 32.3377C24.1969 32.2309 24.7537 32.2857 25.2597 32.4953C25.7657 32.7049 26.1982 33.0598 26.5025 33.5152C26.8068 33.9706 26.9692 34.506 26.9692 35.0537C26.9692 35.7882 26.6774 36.4926 26.1581 37.0119C25.6388 37.5312 24.9344 37.823 24.2 37.823Z" fill="url(#paint0_linear_149_135)"/>
</g>
<defs>
<filter id="filter0_i_149_135" x="0.199951" y="0.899902" width="48.6747" height="48.6747" filterUnits="userSpaceOnUse" color-interpolation-filters="sRGB">
<feFlood flood-opacity="0" result="BackgroundImageFix"/>
<feBlend mode="normal" in="SourceGraphic" in2="BackgroundImageFix" result="shape"/>
<feColorMatrix in="SourceAlpha" type="matrix" values="0 0 0 0 0 0 0 0 0 0 0 0 0 0 0 0 0 0 127 0" result="hardAlpha"/>
<feOffset dx="0.674699" dy="0.674699"/>
<feGaussianBlur stdDeviation="2.6988"/>
<feComposite in2="hardAlpha" operator="arithmetic" k2="-1" k3="1"/>
<feColorMatrix type="matrix" values="0 0 0 0 1 0 0 0 0 1 0 0 0 0 1 0 0 0 0.5 0"/>
<feBlend mode="normal" in2="shape" result="effect1_innerShadow_149_135"/>
</filter>
<linearGradient id="paint0_linear_149_135" x1="24.2" y1="0.899902" x2="24.2" y2="48.8999" gradientUnits="userSpaceOnUse">
<stop stop-color="#E3E3E3"/>
<stop offset="1" stop-color="#747474"/>
</linearGradient>
</defs>
</svg>
