<svg width="32" height="32" viewBox="0 0 32 32" fill="none" xmlns="http://www.w3.org/2000/svg">
<rect width="32" height="32" rx="6" fill="white" fill-opacity="0.08"/>
<path d="M13.134 23.7777C12.9987 23.7777 12.8889 23.6582 12.8889 23.5107V15.272C12.8889 15.1245 12.9987 15.005 13.134 15.005H15.0478C15.1832 15.005 15.293 14.8854 15.293 14.738L15.293 12.5435C15.293 12.3961 15.1832 12.2765 15.0478 12.2765H13.134C12.9987 12.2765 12.8889 12.157 12.8889 12.0095V8.48918C12.8889 8.34171 12.9987 8.22217 13.134 8.22217H15.43C15.5654 8.22217 15.6752 8.34171 15.6752 8.48918V11.876C15.6752 12.0235 15.785 12.143 15.9204 12.143H18.866C19.0013 12.143 19.1111 12.2626 19.1111 12.41V14.738C19.1111 14.8854 19.0013 15.005 18.866 15.005H15.9204C15.785 15.005 15.6752 15.1245 15.6752 15.272V23.5107C15.6752 23.6582 15.5654 23.7777 15.43 23.7777H13.134Z" fill="white" fill-opacity="0.32"/>
</svg>
